<?xml version="1.0" encoding="utf-8"?>
<!-- Generator: Adobe Illustrator 15.0.0, SVG Export Plug-In . SVG Version: 6.00 Build 0)  -->
<!DOCTYPE svg PUBLIC "-//W3C//DTD SVG 1.1//EN" "http://www.w3.org/Graphics/SVG/1.1/DTD/svg11.dtd">
<svg version="1.1" id="Layer_1" xmlns="http://www.w3.org/2000/svg" xmlns:xlink="http://www.w3.org/1999/xlink" x="0px" y="0px"
	 width="74.5px" height="102.25px" viewBox="0 0 74.5 102.25" enable-background="new 0 0 74.5 102.25" xml:space="preserve">
<g>
	<path fill="#E2071A" d="M73.433,35.69c-9.666,24.034-40.334-3.779-50,20.255L9.43,21.38c9.666-24.034,40.333,3.779,50-20.255
		C64.097,12.646,68.765,24.168,73.433,35.69"/>
	<path fill="#FFFFFF" d="M71.751,35.314c-0.775-1.915-1.551-3.83-2.327-5.745C57.657,40.761,30.243,13.326,14.931,15.767
		c-1.49,1.461-2.783,3.411-3.82,5.99c0.776,1.915,1.552,3.83,2.327,5.745C25.205,16.31,52.62,43.745,67.932,41.304
		C69.422,39.843,70.714,37.894,71.751,35.314"/>
	<path fill="#414142" d="M39.708,100.599l-1.136,0.46c-0.461,0.187-0.986-0.036-1.174-0.497L3.783,17.582
		c-0.187-0.461,0.036-0.987,0.497-1.174l1.135-0.46c0.461-0.187,0.987,0.036,1.174,0.497l33.616,82.98
		C40.393,99.887,40.169,100.412,39.708,100.599"/>
	<path fill="#414142" d="M8.351,14.759c0.784,1.935-0.149,4.139-2.084,4.922c-1.935,0.784-4.139-0.149-4.922-2.083
		c-0.784-1.935,0.149-4.139,2.084-4.922C5.363,11.891,7.567,12.824,8.351,14.759"/>
</g>
</svg>
