<?xml version="1.0" encoding="utf-8"?>
<!-- Generator: Adobe Illustrator 15.0.0, SVG Export Plug-In . SVG Version: 6.00 Build 0)  -->
<!DOCTYPE svg PUBLIC "-//W3C//DTD SVG 1.1//EN" "http://www.w3.org/Graphics/SVG/1.1/DTD/svg11.dtd">
<svg version="1.1" id="Layer_1" xmlns="http://www.w3.org/2000/svg" xmlns:xlink="http://www.w3.org/1999/xlink" x="0px" y="0px"
	 width="74.5px" height="102.25px" viewBox="0 0 74.5 102.25" enable-background="new 0 0 74.5 102.25" xml:space="preserve">
<g>
	<path fill="#414142" d="M38.981,100.603l-1.127,0.457c-0.457,0.185-0.979-0.036-1.164-0.493L3.342,18.247
		c-0.186-0.458,0.035-0.979,0.493-1.165l1.126-0.456c0.458-0.186,0.979,0.035,1.165,0.493l33.348,82.319
		C39.659,99.896,39.438,100.417,38.981,100.603"/>
	<path fill="#414142" d="M7.873,15.447c0.777,1.919-0.148,4.105-2.067,4.883c-1.919,0.778-4.105-0.148-4.883-2.067
		c-0.777-1.919,0.148-4.105,2.068-4.883C4.909,12.602,7.096,13.527,7.873,15.447"/>
	<path fill="#3EBCED" d="M72.358,38.184c-10.716,19.551-39.054-4.947-48.959,16.628C18.897,43.56,14.396,32.308,9.894,21.055
		C19.8-0.521,48.138,23.978,58.854,4.427c-1.374,12.241-4.766,19.439-8.778,25.086C58.589,35.119,66.482,39.172,72.358,38.184"/>
	<path fill="#3EBCED" d="M73.853,36.48c-9.799,24.427-40.814-4.179-50.614,20.249c-4.715-11.785-9.43-23.57-14.144-35.355
		c9.799-24.427,40.814,4.179,50.614-20.249c-0.932,14.09-4.253,22.208-8.358,28.361C60.171,35.118,68.207,38.786,73.853,36.48
		 M23.59,52.973c9.924-18.945,35.744,1.846,47.112-13.489c-6.024-0.125-13.733-4.46-21.919-9.986
		c3.897-5.193,7.317-11.579,9.054-22.173C46.469,22.66,20.648,1.868,10.724,20.813C15.013,31.533,19.301,42.253,23.59,52.973"/>
	<path fill="#FFFFFF" d="M47.575,45.739c-9.662-0.984-19.224-1.714-24.176,9.073C18.897,43.56,14.396,32.308,9.894,21.055
		c4.953-10.788,14.514-10.057,24.176-9.073C38.571,23.234,43.073,34.486,47.575,45.739"/>
	<path fill="#3EBCED" d="M48.86,46.637c-10.308-1.054-20.671-2.247-25.622,10.092c-4.715-11.785-9.43-23.57-14.144-35.355
		c4.95-12.339,15.314-11.146,25.622-10.092C39.432,23.067,44.146,34.852,48.86,46.637 M23.59,52.973
		c4.905-9.364,13.692-9.021,22.7-8.13c-4.289-10.72-8.578-21.439-12.866-32.159c-9.007-0.891-17.795-1.234-22.7,8.13
		C15.013,31.533,19.301,42.253,23.59,52.973"/>
</g>
</svg>
